<svg width="30" height="30" viewBox="0 0 30 30" fill="none" xmlns="http://www.w3.org/2000/svg">
<g clip-path="url(#clip0_1_1304)">
<path d="M7.96874 30C7.69774 29.4783 7.88085 29.2065 8.5034 29.2065C13.4765 29.2065 18.4424 29.2065 23.4155 29.2065C24.4189 29.2065 25.1367 28.7803 25.437 27.9647C25.5615 27.6268 25.6128 27.2667 25.686 26.914C25.8911 25.878 26.0962 24.842 26.3013 23.784C19.0723 23.784 11.8579 23.784 4.62157 23.784C4.812 24.7539 4.98778 25.7164 5.19286 26.6716C5.31005 27.2006 5.41258 27.7517 5.64696 28.2366C5.79344 28.5452 6.14501 28.7656 6.42333 29.0007C6.62108 29.1624 6.73827 29.324 6.65038 29.5739C6.56249 29.8384 6.27684 29.9265 5.9912 29.7722C5.18553 29.3387 4.68749 28.6628 4.51171 27.7664C4.25536 26.4805 4.00633 25.1947 3.74999 23.9089C3.74266 23.8722 3.72801 23.8354 3.71337 23.762C3.52294 23.762 3.32518 23.7766 3.13475 23.762C2.2119 23.6664 1.63329 23.0786 1.55272 22.1381C1.50878 21.6238 1.47215 21.0948 1.70653 20.6099C1.9995 19.9927 2.51219 19.6767 3.18602 19.6179C3.28856 19.6106 3.43505 19.5371 3.46434 19.4563C4.0576 17.9427 5.18553 17.2447 6.84813 17.2447C5.95458 16.4291 5.41991 15.4372 5.16356 14.3057C4.91454 13.1815 4.85594 12.0426 4.98778 10.8891C4.70946 11.036 4.46776 11.2197 4.18944 11.3079C3.53758 11.5136 2.94432 11.3446 2.4829 10.8376C2.0288 10.338 1.88231 9.7355 2.16796 9.11831C2.62938 8.12639 3.10546 7.13447 3.97704 6.40707C4.05028 6.34829 4.09422 6.20868 4.09422 6.10582C4.13085 4.23954 5.30272 2.8729 7.15575 2.54961C7.27294 2.52757 7.41942 2.4247 7.47069 2.31449C8.34227 0.499648 10.3784 -0.242454 12.1875 0.587818C12.3413 0.661294 12.4512 0.639251 12.583 0.55108C14.1064 -0.4041 16.0034 -0.095503 17.1826 1.27849C17.2632 1.374 17.4243 1.44748 17.5488 1.44748C18.6767 1.46952 19.6802 1.91038 20.6616 2.38797C21.2988 2.69656 21.5991 3.50479 21.4307 4.20281C21.2549 4.92287 20.6323 5.45189 19.8999 5.48863C19.8047 5.49597 19.7095 5.48863 19.5483 5.48863C19.6728 5.61353 19.7534 5.7017 19.834 5.78988C20.6909 6.68628 21.4307 7.67085 21.8774 8.8391C22.0605 9.31669 22.1484 9.83837 22.251 10.3453C22.3096 10.6319 22.1338 10.8523 21.8848 10.8891C21.6431 10.9258 21.4307 10.7568 21.3867 10.4629C21.0571 8.27334 19.7314 6.73771 18.0542 5.44454C17.9663 5.37841 17.7759 5.38576 17.666 5.42985C14.729 6.48789 11.7993 7.56063 8.86962 8.63337C8.02733 8.94197 7.18504 9.24322 6.34276 9.55916C6.24022 9.5959 6.11571 9.69877 6.09374 9.79428C5.67626 11.396 5.67626 12.9978 6.15965 14.5775C6.50389 15.687 7.17772 16.554 8.23241 17.083C8.3203 17.1271 8.46678 17.1418 8.54735 17.1051C9.54344 16.5614 10.5908 16.3703 11.7187 16.532C11.8066 16.5467 11.9238 16.4805 11.9897 16.4218C13.5132 14.9816 15.2637 14.6216 17.2339 15.3123C17.2998 15.3343 17.373 15.349 17.4243 15.3858C17.7832 15.6723 18.0908 15.5694 18.4424 15.327C19.5703 14.5481 20.5591 13.6591 21.1084 12.3586C21.2329 12.0573 21.4746 11.9545 21.7163 12.0573C21.9726 12.1675 22.0386 12.4174 21.9067 12.7333C21.8481 12.8802 21.8042 13.0419 21.709 13.1595C21.438 13.4901 21.5112 13.7766 21.7676 14.0632C22.2217 13.7326 22.5073 13.2697 22.8003 12.8068C23.4082 11.8589 24.7119 11.7487 25.4736 12.5717C25.9717 13.1154 26.0815 13.9309 25.6714 14.5849C25.2612 15.2388 24.7778 15.856 24.3457 16.4585C26.3452 16.4585 27.5171 17.5239 27.876 19.5959C27.8833 19.5959 27.9272 19.6179 27.9712 19.6326C28.8428 19.8384 29.3262 20.3747 29.3774 21.2638C29.3994 21.6606 29.4067 22.072 29.3262 22.4614C29.165 23.2403 28.4985 23.7326 27.6562 23.762C27.5098 23.7693 27.3633 23.762 27.2021 23.762C26.9971 24.798 26.8066 25.8193 26.5942 26.8332C26.4917 27.3402 26.4038 27.8619 26.228 28.3395C25.9058 29.1991 25.2246 29.7061 24.375 30C18.9038 30 13.4326 30 7.96874 30ZM15.4907 20.4849C11.5063 20.4849 7.52196 20.4849 3.53758 20.4849C3.44237 20.4849 3.33983 20.4849 3.24462 20.4849C2.79051 20.507 2.47557 20.7935 2.4243 21.2491C2.40233 21.4328 2.41698 21.6238 2.41698 21.8075C2.41698 22.6084 2.6953 22.8876 3.48631 22.8876C11.4624 22.8876 19.4385 22.8876 27.4145 22.8876C27.5024 22.8876 27.5903 22.8876 27.6782 22.8876C28.147 22.8582 28.4546 22.5643 28.4985 22.0941C28.5132 21.9104 28.5058 21.7193 28.5058 21.5357C28.5058 20.7715 28.2202 20.4849 27.4658 20.4849C23.4741 20.4849 19.4824 20.4849 15.4907 20.4849ZM26.9238 19.5886C26.8286 17.8472 24.9609 16.8112 23.4595 17.6562C23.1885 17.8104 22.9614 17.8619 22.6758 17.6855C21.5552 17.0022 20.3686 16.8847 19.1382 17.3402C18.8379 17.4504 18.6255 17.3843 18.4057 17.1565C16.6992 15.3784 14.1138 15.4078 12.4438 17.2153C12.2534 17.421 12.063 17.5019 11.77 17.4431C10.5322 17.2006 9.39696 17.4504 8.42284 18.2586C8.12987 18.5011 7.88817 18.5305 7.55126 18.3615C6.45262 17.8031 5.09032 18.2293 4.48241 19.3093C4.43114 19.3975 4.40184 19.493 4.35057 19.5959C11.9165 19.5886 19.4165 19.5886 26.9238 19.5886ZM17.0947 3.23293C16.9409 2.24101 16.4429 1.51361 15.542 1.11684C14.6191 0.705379 13.7109 0.800897 12.8906 1.40339C12.6123 1.60178 12.3852 1.71199 12.0483 1.50626C10.5542 0.631903 8.7744 1.28583 8.17381 2.92434C8.05663 3.24028 7.87352 3.37988 7.54393 3.37254C7.3828 3.36519 7.21434 3.40193 7.05321 3.43132C5.27342 3.79869 4.37987 6.00295 5.43456 7.4945C9.31639 6.07643 13.1982 4.65835 17.0947 3.23293ZM21.2402 16.2087C21.5991 16.3189 21.9873 16.4365 22.3828 16.5467C22.4487 16.5687 22.5439 16.5687 22.6025 16.5393C23.6572 15.9368 24.4702 15.0992 24.9756 13.9897C25.2246 13.446 24.7412 12.8509 24.1406 12.9023C23.811 12.9317 23.5986 13.1301 23.4375 13.4093C23.064 14.0632 22.5879 14.6216 21.936 15.0184C21.8701 15.0551 21.8115 15.1139 21.7822 15.18C21.5991 15.5254 21.4233 15.8634 21.2402 16.2087ZM5.57372 8.89054C5.70555 8.84645 5.78612 8.81706 5.86669 8.78767C8.5327 7.8178 11.1914 6.84057 13.8574 5.8707C15.1172 5.4078 16.3843 4.94491 17.6514 4.48936C17.8564 4.41589 17.9516 4.32772 17.8491 4.10729C17.7466 3.87952 17.5928 3.99708 17.4609 4.04116C13.5498 5.46658 9.64598 6.89201 5.73485 8.32478C5.65428 8.35417 5.55174 8.36886 5.49315 8.42764C5.44188 8.48642 5.40526 8.59663 5.41991 8.67011C5.43456 8.75093 5.52245 8.82441 5.57372 8.89054ZM4.31395 7.30347C3.94774 7.64146 3.08348 9.02279 2.95165 9.46364C2.84178 9.81633 3.00292 10.2057 3.33251 10.3894C3.67674 10.5805 4.0869 10.4996 4.3286 10.1837C4.46044 10.0074 4.54833 9.79428 4.67284 9.6106C4.76805 9.46364 4.76073 9.33874 4.68016 9.18444C4.48973 8.8391 4.42381 8.47173 4.61424 8.08965C4.64354 8.03087 4.63622 7.93536 4.61424 7.87658C4.52635 7.67819 4.42381 7.50185 4.31395 7.30347ZM17.8052 2.32918C17.8638 2.5937 17.8931 2.78473 17.9443 2.96842C17.9663 3.0419 18.0249 3.12272 18.0908 3.15211C18.3984 3.30641 18.6328 3.54153 18.6767 3.87217C18.728 4.23954 18.9477 4.3718 19.2554 4.45262C19.3359 4.47467 19.4165 4.51875 19.5044 4.54079C19.9512 4.68774 20.3833 4.50406 20.5444 4.09259C20.7056 3.66644 20.5151 3.23293 20.061 3.04924C19.6509 2.88025 19.2334 2.71126 18.8086 2.57165C18.4936 2.47614 18.164 2.41736 17.8052 2.32918ZM20.918 14.4379C20.1929 15.0331 19.4824 15.6282 18.728 16.2601C18.8452 16.3116 18.977 16.4291 19.0869 16.4071C19.6289 16.3262 20.1489 16.1719 20.4712 15.665C20.5517 15.5401 20.6689 15.4445 20.7495 15.327C20.9473 15.0478 21.0425 14.7539 20.918 14.4379Z" fill="#00a63e"/>
<path d="M30.0001 12.8949C29.8243 13.5415 29.502 14.0705 28.8795 14.3865C27.8834 14.8861 26.6382 14.4379 26.1695 13.3946C25.7154 12.3879 26.2208 11.1389 27.2462 10.7274C28.3008 10.3086 29.524 10.8597 29.8756 11.9103C29.9195 12.0426 29.9561 12.1675 30.0001 12.2998C30.0001 12.5055 30.0001 12.7039 30.0001 12.8949ZM26.8799 12.6084C26.8799 13.2256 27.378 13.7252 27.9932 13.7252C28.6011 13.7252 29.1065 13.2182 29.1138 12.6084C29.1138 11.9838 28.6085 11.4768 27.9786 11.4842C27.3633 11.4842 26.8799 11.9765 26.8799 12.6084Z" fill="#00a63e"/>
<path d="M13.7035 13.4093C13.5644 13.0272 13.4399 12.6672 13.3007 12.3145C13.2787 12.2557 13.1762 12.2043 13.1103 12.1896C12.8466 12.1602 12.5829 12.1381 12.3193 12.1308C11.8066 12.1161 11.3671 11.9692 11.1767 11.4328C10.9862 10.8964 11.184 10.4262 11.5795 10.0808C12.29 9.47099 13.1469 9.15504 14.0844 9.19178C14.8901 9.22117 15.432 9.91184 15.2123 10.5952C15.1537 10.7789 15.0219 10.9552 14.8901 11.1021C14.685 11.3373 14.436 11.5356 14.2236 11.7634C14.165 11.8222 14.1137 11.9398 14.1357 12.0059C14.2529 12.3659 14.392 12.7186 14.5312 13.0933C14.9413 12.8582 15.2123 12.5423 15.4101 12.1455C15.6152 11.7267 15.8422 11.5944 16.1132 11.7414C16.3695 11.8736 16.3988 12.1381 16.2011 12.5423C15.432 14.1293 13.4618 14.7833 11.9091 13.9677C11.6308 13.8207 11.5282 13.6077 11.6308 13.3725C11.7333 13.1301 11.975 13.0345 12.2753 13.1741C12.7148 13.3872 13.1689 13.4901 13.7035 13.4093ZM13.0737 11.3005C13.081 11.3226 13.0956 11.3446 13.1029 11.3667C13.2934 11.2711 13.5058 11.1977 13.6816 11.0728C13.872 10.9331 14.0258 10.7642 14.1869 10.5878C14.2675 10.4923 14.3188 10.3747 14.3847 10.2645C14.2602 10.2057 14.1357 10.1323 14.0038 10.0882C13.9379 10.0661 13.85 10.0808 13.7695 10.0882C13.2494 10.1543 12.766 10.3307 12.3339 10.6246C12.224 10.698 12.1288 10.8082 12.0629 10.9185C11.9457 11.1021 11.9897 11.2344 12.2314 11.2491C12.5097 11.2638 12.788 11.2858 13.0737 11.3005Z" fill="#00a63e"/>
<path d="M25.5394 8.03087C24.1405 8.02353 23.0053 6.87731 23.0199 5.48128C23.0346 4.09259 24.1698 2.96107 25.5468 2.96842C26.9384 2.97577 28.081 4.12933 28.0663 5.52536C28.059 6.91405 26.9237 8.03822 25.5394 8.03087ZM27.1947 5.49597C27.1874 4.59223 26.455 3.85012 25.5541 3.85012C24.6386 3.85012 23.8988 4.59223 23.8988 5.51067C23.8988 6.42176 24.6312 7.14917 25.5394 7.14917C26.455 7.15652 27.1947 6.41442 27.1947 5.49597Z" fill="#00a63e"/>
<path d="M1.91895 17.6562C0.871582 17.6562 0 16.7818 0 15.7238C0 14.6731 0.878906 13.7987 1.92627 13.7987C2.97363 13.7987 3.85254 14.6804 3.84521 15.7311C3.83789 16.7892 2.96631 17.6562 1.91895 17.6562ZM1.9043 16.7745C2.47559 16.7818 2.95166 16.3189 2.96631 15.7458C2.98096 15.18 2.50488 14.6951 1.93359 14.6804C1.36963 14.6731 0.88623 15.1433 0.878906 15.7164C0.871582 16.2895 1.33301 16.7671 1.9043 16.7745Z" fill="#00a63e"/>
<path d="M9.47757 11.1756C9.35306 11.3005 9.24319 11.4915 9.10403 11.5209C8.95755 11.5503 8.70853 11.4695 8.63528 11.3593C8.4888 11.1315 8.40091 10.8449 8.33499 10.5731C8.28372 10.36 8.39358 10.1543 8.60599 10.1249C8.7598 10.1028 9.00882 10.1543 9.08206 10.2645C9.25052 10.5143 9.33108 10.8229 9.47757 11.1756Z" fill="#00a63e"/>
<path d="M17.1826 8.34678C17.0654 8.47904 16.9628 8.67007 16.8237 8.69946C16.6772 8.7362 16.4209 8.66273 16.3549 8.55251C16.2011 8.3027 16.0986 8.00145 16.062 7.71489C16.0473 7.58999 16.2085 7.36956 16.3403 7.31078C16.4575 7.25935 16.7211 7.33282 16.7871 7.43569C16.9482 7.69285 17.0361 7.9941 17.1826 8.34678Z" fill="#00a63e"/>
</g>
<defs>
<clipPath id="clip0_1_1304">
<rect width="30" height="30" fill="white"/>
</clipPath>
</defs>
</svg>
